<svg width="30" height="30" viewBox="0 0 30 30" fill="none" xmlns="http://www.w3.org/2000/svg">
<path d="M26.25 27.5H3.75C3.2375 27.5 2.8125 27.075 2.8125 26.5625C2.8125 26.05 3.2375 25.625 3.75 25.625H26.25C26.7625 25.625 27.1875 26.05 27.1875 26.5625C27.1875 27.075 26.7625 27.5 26.25 27.5Z" fill="white"/>
<path d="M23.775 4.35007C21.35 1.92507 18.975 1.86257 16.4875 4.35007L14.975 5.86257C14.85 5.98757 14.8 6.18757 14.85 6.36257C15.8 9.67508 18.45 12.3251 21.7625 13.2751C21.8125 13.2876 21.8625 13.3001 21.9125 13.3001C22.05 13.3001 22.175 13.2501 22.275 13.1501L23.775 11.6376C25.0125 10.4126 25.6125 9.22507 25.6125 8.02507C25.625 6.78757 25.025 5.58757 23.775 4.35007Z" fill="white"/>
<path d="M19.5125 14.4125C19.15 14.2375 18.8 14.0625 18.4625 13.8625C18.1875 13.7 17.925 13.525 17.6625 13.3375C17.45 13.2 17.2 13 16.9625 12.8C16.9375 12.7875 16.85 12.7125 16.75 12.6125C16.3375 12.2625 15.875 11.8125 15.4625 11.3125C15.425 11.2875 15.3625 11.2 15.275 11.0875C15.15 10.9375 14.9375 10.6875 14.75 10.4C14.6 10.2125 14.425 9.9375 14.2625 9.6625C14.0625 9.325 13.8875 8.9875 13.7125 8.6375C13.6576 8.52002 13.6065 8.40378 13.5583 8.28914C13.4169 7.95314 12.9812 7.85627 12.7234 8.11403L5.42497 15.4125C5.26247 15.575 5.11247 15.8875 5.07497 16.1L4.39997 20.8875C4.27497 21.7375 4.51247 22.5375 5.03747 23.075C5.48747 23.5125 6.11247 23.75 6.78747 23.75C6.93747 23.75 7.08747 23.7375 7.23747 23.7125L12.0375 23.0375C12.2625 23 12.575 22.85 12.725 22.6875L20.0163 15.3962C20.2758 15.1366 20.1775 14.6924 19.8387 14.5513C19.7324 14.507 19.6241 14.4609 19.5125 14.4125Z" fill="white"/>
</svg>
