<svg width="100" height="100" viewBox="0 0 100 100" fill="none" xmlns="http://www.w3.org/2000/svg">
<circle cx="50" cy="50" r="50" fill="#F7F9FD"/>
<circle cx="50" cy="50" r="40.5" stroke="#4294C9"/>
<path d="M57.5 65H42.5C41.885 65 41.375 64.49 41.375 63.875C41.375 63.26 41.885 62.75 42.5 62.75H57.5C58.115 62.75 58.625 63.26 58.625 63.875C58.625 64.49 58.115 65 57.5 65Z" fill="#4294C9"/>
<path d="M62.525 40.2801L56.525 44.5701C55.73 45.1401 54.59 44.7951 54.245 43.8801L51.41 36.3201C50.93 35.0151 49.085 35.0151 48.605 36.3201L45.755 43.8651C45.41 44.7951 44.285 45.1401 43.49 44.5551L37.49 40.2651C36.29 39.4251 34.7 40.6101 35.195 42.0051L41.435 59.4801C41.645 60.0801 42.215 60.4701 42.845 60.4701H57.14C57.77 60.4701 58.34 60.0651 58.55 59.4801L64.79 42.0051C65.3 40.6101 63.71 39.4251 62.525 40.2801ZM53.75 54.1251H46.25C45.635 54.1251 45.125 53.6151 45.125 53.0001C45.125 52.3851 45.635 51.8751 46.25 51.8751H53.75C54.365 51.8751 54.875 52.3851 54.875 53.0001C54.875 53.6151 54.365 54.1251 53.75 54.1251Z" fill="#4294C9"/>
</svg>
