<svg width="100" height="100" viewBox="0 0 100 100" fill="none" xmlns="http://www.w3.org/2000/svg">
<circle cx="50" cy="50" r="50" fill="#F7F9FD"/>
<circle cx="50" cy="50" r="40.5" stroke="#4294C9"/>
<path d="M53.525 35H46.475C44.915 35 43.64 36.26 43.64 37.82V39.23C43.64 40.79 44.9 42.05 46.46 42.05H53.525C55.085 42.05 56.345 40.79 56.345 39.23V37.82C56.36 36.26 55.085 35 53.525 35Z" fill="#4294C9"/>
<path d="M57.8601 39.23C57.8601 41.615 55.9101 43.565 53.5251 43.565H46.4751C44.0901 43.565 42.1401 41.615 42.1401 39.23C42.1401 38.39 41.2401 37.865 40.4901 38.255C38.3751 39.38 36.9351 41.615 36.9351 44.18V58.295C36.9351 61.985 39.9501 65 43.6401 65H56.3601C60.0501 65 63.0651 61.985 63.0651 58.295V44.18C63.0651 41.615 61.6251 39.38 59.5101 38.255C58.7601 37.865 57.8601 38.39 57.8601 39.23ZM55.0101 51.095L49.0101 57.095C48.7851 57.32 48.5001 57.425 48.2151 57.425C47.9301 57.425 47.6451 57.32 47.4201 57.095L45.1701 54.845C44.7351 54.41 44.7351 53.69 45.1701 53.255C45.6051 52.82 46.3251 52.82 46.7601 53.255L48.2151 54.71L53.4201 49.505C53.8551 49.07 54.5751 49.07 55.0101 49.505C55.4451 49.94 55.4451 50.66 55.0101 51.095Z" fill="#4294C9"/>
</svg>
