<svg width="100" height="100" viewBox="0 0 100 100" fill="none" xmlns="http://www.w3.org/2000/svg">
<circle cx="50" cy="50" r="50" fill="#F7F9FD"/>
<circle cx="50" cy="50" r="40.5" stroke="#4294C9"/>
<path d="M56.285 35H43.715C38.255 35 35 38.255 35 43.715V56.27C35 61.745 38.255 65 43.715 65H56.27C61.73 65 64.985 61.745 64.985 56.285V43.715C65 38.255 61.745 35 56.285 35ZM43.445 59.225C43.445 59.84 42.935 60.35 42.32 60.35C41.705 60.35 41.195 59.84 41.195 59.225V56.12C41.195 55.505 41.705 54.995 42.32 54.995C42.935 54.995 43.445 55.505 43.445 56.12V59.225ZM51.125 59.225C51.125 59.84 50.615 60.35 50 60.35C49.385 60.35 48.875 59.84 48.875 59.225V53C48.875 52.385 49.385 51.875 50 51.875C50.615 51.875 51.125 52.385 51.125 53V59.225ZM58.805 59.225C58.805 59.84 58.295 60.35 57.68 60.35C57.065 60.35 56.555 59.84 56.555 59.225V49.895C56.555 49.28 57.065 48.77 57.68 48.77C58.295 48.77 58.805 49.28 58.805 49.895V59.225ZM58.805 45.155C58.805 45.77 58.295 46.28 57.68 46.28C57.065 46.28 56.555 45.77 56.555 45.155V43.7C52.73 47.63 47.945 50.405 42.59 51.74C42.5 51.77 42.41 51.77 42.32 51.77C41.81 51.77 41.36 51.425 41.225 50.915C41.075 50.315 41.435 49.7 42.05 49.55C47.105 48.29 51.605 45.635 55.175 41.885H53.3C52.685 41.885 52.175 41.375 52.175 40.76C52.175 40.145 52.685 39.635 53.3 39.635H57.695C57.755 39.635 57.8 39.665 57.86 39.665C57.935 39.68 58.01 39.68 58.085 39.71C58.16 39.74 58.22 39.785 58.295 39.83C58.34 39.86 58.385 39.875 58.43 39.905C58.445 39.92 58.445 39.935 58.46 39.935C58.52 39.995 58.565 40.055 58.61 40.115C58.655 40.175 58.7 40.22 58.715 40.28C58.745 40.34 58.745 40.4 58.76 40.475C58.775 40.55 58.805 40.625 58.805 40.715C58.805 40.73 58.82 40.745 58.82 40.76V45.155H58.805Z" fill="#4294C9"/>
</svg>
