<svg width="100" height="100" viewBox="0 0 100 100" fill="none" xmlns="http://www.w3.org/2000/svg">
<circle cx="50" cy="50" r="50" fill="#F7F9FD"/>
<circle cx="50" cy="50" r="40.5" stroke="#4294C9"/>
<path d="M50 35C41.72 35 35 41.72 35 50C35 58.28 41.72 65 50 65C58.28 65 65 58.28 65 50C65 41.72 58.28 35 50 35ZM45.5 44C46.325 44 47 44.675 47 45.5C47 46.325 46.34 47 45.5 47C44.675 47 44 46.325 44 45.5C44 44.675 44.675 44 45.5 44ZM46.295 55.295C46.07 55.52 45.785 55.625 45.5 55.625C45.215 55.625 44.93 55.52 44.705 55.295C44.27 54.86 44.27 54.14 44.705 53.705L53.705 44.705C54.14 44.27 54.86 44.27 55.295 44.705C55.73 45.14 55.73 45.86 55.295 46.295L46.295 55.295ZM54.5 56C53.66 56 52.985 55.325 52.985 54.5C52.985 53.675 53.66 53 54.485 53C55.31 53 55.985 53.675 55.985 54.5C55.985 55.325 55.325 56 54.5 56Z" fill="#4294C9"/>
</svg>
