<svg width="44" height="44" viewBox="0 0 44 44" fill="none" xmlns="http://www.w3.org/2000/svg">
<circle cx="22" cy="22" r="21.5" stroke="white"/>
<path d="M27.7404 19.0488V22.9822C27.7404 25.3345 26.3962 26.3426 24.3799 26.3426H17.6665C17.3228 26.3426 16.9944 26.3121 16.6889 26.2434C16.498 26.2128 16.3147 26.1594 16.1467 26.0983C15.001 25.6706 14.306 24.6777 14.306 22.9822V19.0488C14.306 16.6965 15.6502 15.6884 17.6665 15.6884H24.3799C26.0907 15.6884 27.3203 16.4139 27.6487 18.0713C27.7022 18.3768 27.7404 18.6899 27.7404 19.0488Z" stroke="white" stroke-miterlimit="10" stroke-linecap="round" stroke-linejoin="round"/>
<path d="M30.0325 21.3401V25.2734C30.0325 27.6258 28.6883 28.6339 26.672 28.6339H19.9587C19.3935 28.6339 18.8818 28.5576 18.4388 28.3896C17.53 28.0535 16.9113 27.3585 16.6898 26.2434C16.9953 26.3122 17.3237 26.3427 17.6674 26.3427H24.3808C26.3971 26.3427 27.7413 25.3345 27.7413 22.9822V19.0489C27.7413 18.6899 27.7107 18.3692 27.6496 18.0713C29.1008 18.3768 30.0325 19.4002 30.0325 21.3401Z" stroke="white" stroke-miterlimit="10" stroke-linecap="round" stroke-linejoin="round"/>
<path d="M21.0183 23.0356C22.1318 23.0356 23.0346 22.1328 23.0346 21.0192C23.0346 19.9057 22.1318 19.0029 21.0183 19.0029C19.9047 19.0029 19.002 19.9057 19.002 21.0192C19.002 22.1328 19.9047 23.0356 21.0183 23.0356Z" stroke="white" stroke-miterlimit="10" stroke-linecap="round" stroke-linejoin="round"/>
<path d="M16.6508 19.3391V22.6996" stroke="white" stroke-miterlimit="10" stroke-linecap="round" stroke-linejoin="round"/>
<path d="M25.3894 19.3392V22.6998" stroke="white" stroke-miterlimit="10" stroke-linecap="round" stroke-linejoin="round"/>
</svg>
