<svg width="61" height="61" viewBox="0 0 61 61" fill="none" xmlns="http://www.w3.org/2000/svg">
<circle cx="30.5" cy="30.5" r="30.5" fill="#E6F0F8"/>
<path d="M35 21H27C23 21 21 23 21 27V40C21 40.55 21.45 41 22 41H35C39 41 41 39 41 35V27C41 23 39 21 35 21ZM33 34.25H26C25.59 34.25 25.25 33.91 25.25 33.5C25.25 33.09 25.59 32.75 26 32.75H33C33.41 32.75 33.75 33.09 33.75 33.5C33.75 33.91 33.41 34.25 33 34.25ZM36 29.25H26C25.59 29.25 25.25 28.91 25.25 28.5C25.25 28.09 25.59 27.75 26 27.75H36C36.41 27.75 36.75 28.09 36.75 28.5C36.75 28.91 36.41 29.25 36 29.25Z" fill="#4294C9"/>
</svg>
