<svg width="61" height="61" viewBox="0 0 61 61" fill="none" xmlns="http://www.w3.org/2000/svg">
<circle cx="30.5" cy="30.5" r="30.5" fill="#E6F0F8"/>
<path d="M38.12 33.9399L38.44 34.5899C38.6 34.9099 39.01 35.2099 39.35 35.2699L39.78 35.3399C41.09 35.5599 41.39 36.5199 40.46 37.4599L40.06 37.8599C39.79 38.1299 39.65 38.6499 39.73 39.0299L39.78 39.2699C40.14 40.8499 39.3 41.4599 37.93 40.6299L37.64 40.4499C37.29 40.2399 36.71 40.2399 36.36 40.4499L36.07 40.6299C34.69 41.4599 33.86 40.8499 34.22 39.2699L34.27 39.0299C34.35 38.6599 34.21 38.1299 33.94 37.8599L33.54 37.4599C32.61 36.5099 32.91 35.5599 34.22 35.3399L34.65 35.2699C35 35.2099 35.4 34.9099 35.56 34.5899L35.88 33.9399C36.5 32.6899 37.5 32.6899 38.12 33.9399Z" fill="#4294C9"/>
<path d="M35.19 21H26.81C23.17 21 21 23.17 21 26.81V35.19C21 38.83 23.17 41 26.81 41H32.09C32.44 41 32.69 40.64 32.65 40.29C32.61 39.91 32.63 39.46 32.75 38.94C32.77 38.87 32.75 38.79 32.69 38.73L32.47 38.51C31.62 37.65 31.31 36.61 31.61 35.66C31.92 34.72 32.78 34.06 33.97 33.86L34.27 33.81L34.54 33.27C35.09 32.15 35.99 31.5 37 31.5C38.01 31.5 38.91 32.15 39.46 33.27L39.61 33.58C39.68 33.73 39.82 33.83 39.98 33.86C40.07 33.88 40.16 33.9 40.25 33.92C40.6 34.01 41 33.73 41 33.36V26.81C41 23.17 38.83 21 35.19 21ZM35.26 27.96L32.95 30.94C32.66 31.31 32.25 31.55 31.78 31.6C31.32 31.66 30.85 31.53 30.49 31.24L28.66 29.82C28.59 29.76 28.51 29.76 28.47 29.77C28.43 29.77 28.36 29.79 28.3 29.87L25.92 32.96C25.77 33.15 25.55 33.25 25.32 33.25C25.16 33.25 25 33.2 24.86 33.09C24.53 32.84 24.47 32.37 24.72 32.04L27.1 28.95C27.39 28.58 27.8 28.34 28.27 28.28C28.74 28.22 29.2 28.35 29.57 28.64L31.4 30.08C31.47 30.14 31.54 30.13 31.59 30.13C31.63 30.13 31.7 30.11 31.76 30.03L34.07 27.05C34.32 26.72 34.79 26.66 35.12 26.92C35.46 27.17 35.51 27.64 35.26 27.96Z" fill="#4294C9"/>
</svg>
