<svg width="61" height="61" viewBox="0 0 61 61" fill="none" xmlns="http://www.w3.org/2000/svg">
<circle cx="30.5" cy="30.5" r="30.5" fill="#E6F0F8"/>
<path d="M37.02 31.33L35.8 30.11C35.51 29.86 35.34 29.49 35.33 29.08C35.31 28.63 35.49 28.18 35.82 27.85L37.02 26.65C38.06 25.61 38.45 24.61 38.12 23.82C37.8 23.04 36.81 22.61 35.35 22.61H24.9V21.75C24.9 21.34 24.56 21 24.15 21C23.74 21 23.4 21.34 23.4 21.75V40.25C23.4 40.66 23.74 41 24.15 41C24.56 41 24.9 40.66 24.9 40.25V35.37H35.35C36.79 35.37 37.76 34.93 38.09 34.14C38.42 33.35 38.04 32.36 37.02 31.33Z" fill="#4294C9"/>
</svg>
