<svg width="61" height="61" viewBox="0 0 61 61" fill="none" xmlns="http://www.w3.org/2000/svg">
<circle cx="30.5" cy="30.5" r="30.5" fill="#E6F0F8"/>
<path d="M41 21.75H21C20.59 21.75 20.25 21.41 20.25 21C20.25 20.59 20.59 20.25 21 20.25H41C41.41 20.25 41.75 20.59 41.75 21C41.75 21.41 41.41 21.75 41 21.75Z" fill="#4294C9"/>
<path d="M35.67 41.34C35.54 41.6 35.27 41.75 35 41.75C34.89 41.75 34.77 41.72 34.67 41.67L31 39.84L27.33 41.67C27.23 41.72 27.11 41.75 27 41.75C26.73 41.75 26.46 41.6 26.33 41.34C26.14 40.96 26.29 40.51 26.67 40.33L30.25 38.54V36H31.75V38.54L35.33 40.33C35.71 40.51 35.86 40.96 35.67 41.34Z" fill="#4294C9"/>
<path d="M22 21V33.1C22 35 23 36 24.9 36H37.1C39 36 40 35 40 33.1V21H22ZM35.98 27.58L32.83 30.21C32.54 30.45 32.17 30.55 31.82 30.49C31.46 30.43 31.15 30.21 30.96 29.89L29.91 28.14L26.98 30.58C26.84 30.7 26.67 30.75 26.5 30.75C26.29 30.75 26.07 30.66 25.92 30.48C25.65 30.16 25.7 29.69 26.02 29.42L29.17 26.79C29.46 26.55 29.83 26.45 30.18 26.51C30.54 26.57 30.85 26.79 31.04 27.11L32.09 28.86L35.02 26.42C35.34 26.15 35.81 26.2 36.08 26.52C36.34 26.84 36.3 27.31 35.98 27.58Z" fill="#4294C9"/>
</svg>
