<svg width="61" height="61" viewBox="0 0 61 61" fill="none" xmlns="http://www.w3.org/2000/svg">
<circle cx="30.5" cy="30.5" r="30.5" fill="#E6F0F8"/>
<path d="M36.53 26.77C36.46 26.76 36.39 26.76 36.32 26.77C34.77 26.72 33.54 25.45 33.54 23.89C33.54 22.3 34.83 21 36.43 21C38.02 21 39.32 22.29 39.32 23.89C39.31 25.45 38.08 26.72 36.53 26.77Z" fill="#4294C9"/>
<path d="M39.79 33.6999C38.67 34.4499 37.1 34.7299 35.65 34.5399C36.03 33.7199 36.23 32.8099 36.24 31.8499C36.24 30.8499 36.02 29.8999 35.6 29.0699C37.08 28.8699 38.65 29.1499 39.78 29.8999C41.36 30.9399 41.36 32.6499 39.79 33.6999Z" fill="#4294C9"/>
<path d="M25.44 26.77C25.51 26.76 25.58 26.76 25.65 26.77C27.2 26.72 28.43 25.45 28.43 23.89C28.43 22.29 27.14 21 25.54 21C23.95 21 22.66 22.29 22.66 23.89C22.66 25.45 23.89 26.72 25.44 26.77Z" fill="#4294C9"/>
<path d="M25.55 31.8501C25.55 32.8201 25.76 33.7401 26.14 34.5701C24.73 34.7201 23.26 34.4201 22.18 33.7101C20.6 32.6601 20.6 30.9501 22.18 29.9001C23.25 29.1801 24.76 28.8901 26.18 29.0501C25.77 29.8901 25.55 30.8401 25.55 31.8501Z" fill="#4294C9"/>
<path d="M31.12 34.87C31.04 34.86 30.95 34.86 30.86 34.87C29.02 34.81 27.55 33.3 27.55 31.44C27.56 29.54 29.09 28 31 28C32.9 28 34.44 29.54 34.44 31.44C34.43 33.3 32.97 34.81 31.12 34.87Z" fill="#4294C9"/>
<path d="M27.87 36.9401C26.36 37.9501 26.36 39.6101 27.87 40.6101C29.59 41.7601 32.41 41.7601 34.13 40.6101C35.64 39.6001 35.64 37.9401 34.13 36.9401C32.42 35.7901 29.6 35.7901 27.87 36.9401Z" fill="#4294C9"/>
</svg>
