<svg width="61" height="61" viewBox="0 0 61 61" fill="none" xmlns="http://www.w3.org/2000/svg">
<circle cx="30.5" cy="30.5" r="30.5" fill="#E6F0F8"/>
<path d="M32.19 25H25.79C25.53 25 25.28 25.01 25.04 25.04C22.35 25.27 21 26.86 21 29.79V33.79C21 37.79 22.6 38.58 25.79 38.58H26.19C26.41 38.58 26.7 38.73 26.83 38.9L28.03 40.5C28.56 41.21 29.42 41.21 29.95 40.5L31.15 38.9C31.3 38.7 31.54 38.58 31.79 38.58H32.19C35.12 38.58 36.71 37.24 36.94 34.54C36.97 34.3 36.98 34.05 36.98 33.79V29.79C36.98 26.6 35.38 25 32.19 25ZM25.5 33C24.94 33 24.5 32.55 24.5 32C24.5 31.45 24.95 31 25.5 31C26.05 31 26.5 31.45 26.5 32C26.5 32.55 26.05 33 25.5 33ZM28.99 33C28.43 33 27.99 32.55 27.99 32C27.99 31.45 28.44 31 28.99 31C29.54 31 29.99 31.45 29.99 32C29.99 32.55 29.55 33 28.99 33ZM32.49 33C31.93 33 31.49 32.55 31.49 32C31.49 31.45 31.94 31 32.49 31C33.04 31 33.49 31.45 33.49 32C33.49 32.55 33.04 33 32.49 33Z" fill="#4294C9"/>
<path d="M40.98 25.79V29.79C40.98 31.79 40.36 33.15 39.12 33.9C38.82 34.08 38.47 33.84 38.47 33.49L38.48 29.79C38.48 25.79 36.19 23.5 32.19 23.5L26.1 23.51C25.75 23.51 25.51 23.16 25.69 22.86C26.44 21.62 27.8 21 29.79 21H36.19C39.38 21 40.98 22.6 40.98 25.79Z" fill="#4294C9"/>
</svg>
