<svg width="61" height="61" viewBox="0 0 61 61" fill="none" xmlns="http://www.w3.org/2000/svg">
<circle cx="30.5" cy="30.5" r="30.5" fill="#E6F0F8"/>
<path d="M27.39 37.4902V27.3302C27.39 26.9302 27.51 26.5402 27.73 26.2102L30.46 22.1502C30.89 21.5002 31.96 21.0402 32.87 21.3802C33.85 21.7102 34.5 22.8102 34.29 23.7902L33.77 27.0602C33.73 27.3602 33.81 27.6302 33.98 27.8402C34.15 28.0302 34.4 28.1502 34.67 28.1502H38.78C39.57 28.1502 40.25 28.4702 40.65 29.0302C41.03 29.5702 41.1 30.2702 40.85 30.9802L38.39 38.4702C38.08 39.7102 36.73 40.7202 35.39 40.7202H31.49C30.82 40.7202 29.88 40.4902 29.45 40.0602L28.17 39.0702C27.68 38.7002 27.39 38.1102 27.39 37.4902Z" fill="#4294C9"/>
<path d="M24.21 25.3799H23.18C21.63 25.3799 21 25.9799 21 27.4599V37.5199C21 38.9999 21.63 39.5999 23.18 39.5999H24.21C25.76 39.5999 26.39 38.9999 26.39 37.5199V27.4599C26.39 25.9799 25.76 25.3799 24.21 25.3799Z" fill="#4294C9"/>
</svg>
