<svg width="61" height="61" viewBox="0 0 61 61" fill="none" xmlns="http://www.w3.org/2000/svg">
<circle cx="30.5" cy="30.5" r="30.5" fill="#E6F0F8"/>
<path d="M36.92 29.12C36.59 29.04 36.24 29 35.88 29C33.26 29 31.13 31.13 31.13 33.75C31.13 34.64 31.38 35.48 31.82 36.2C32.19 36.82 32.7 37.35 33.32 37.73C34.06 38.22 34.94 38.5 35.88 38.5C37.62 38.5 39.13 37.57 39.95 36.2C40.39 35.48 40.63 34.64 40.63 33.75C40.63 31.49 39.05 29.59 36.92 29.12ZM38.25 33.13L35.71 35.47C35.57 35.6 35.38 35.67 35.2 35.67C35.01 35.67 34.82 35.6 34.67 35.45L33.5 34.28C33.21 33.99 33.21 33.51 33.5 33.22C33.79 32.93 34.27 32.93 34.56 33.22L35.22 33.88L37.23 32.03C37.54 31.75 38.01 31.77 38.29 32.07C38.57 32.38 38.55 32.85 38.25 33.13Z" fill="#4294C9"/>
<path d="M39.58 23.02V25.24C39.58 26.05 39.08 27.06 38.58 27.57L38.4 27.73C38.26 27.86 38.05 27.89 37.87 27.83C37.67 27.76 37.47 27.71 37.27 27.66C36.83 27.55 36.36 27.5 35.88 27.5C32.43 27.5 29.63 30.3 29.63 33.75C29.63 34.89 29.94 36.01 30.53 36.97C31.03 37.81 31.73 38.51 32.49 38.98C32.72 39.13 32.81 39.45 32.61 39.63C32.54 39.69 32.47 39.74 32.4 39.79L31 40.7C29.7 41.51 27.91 40.6 27.91 38.98V33.63C27.91 32.92 27.51 32.01 27.11 31.51L23.32 27.47C22.82 26.96 22.42 26.05 22.42 25.45V23.12C22.42 21.91 23.32 21 24.41 21H37.59C38.68 21 39.58 21.91 39.58 23.02Z" fill="#4294C9"/>
</svg>
